<svg width="27" height="26" viewBox="0 0 27 26" fill="none" xmlns="http://www.w3.org/2000/svg">
<g clip-path="url(#clip0_33275_2744)">
<path d="M13.3096 24.6309C19.5508 24.6309 24.6855 19.4961 24.6855 13.2549C24.6855 7.00293 19.5508 1.86816 13.2988 1.86816C7.04688 1.86816 1.92285 7.00293 1.92285 13.2549C1.92285 19.4961 7.05762 24.6309 13.3096 24.6309ZM12.1172 18.6582C11.6338 18.6582 11.2363 18.4326 10.9033 18.0137L8.38965 15.0273C8.13184 14.7266 8.03516 14.4473 8.03516 14.125C8.03516 13.4482 8.58301 12.9111 9.25977 12.9111C9.64648 12.9111 9.94727 13.0723 10.2373 13.416L12.0957 15.6719L16.2529 9.07617C16.543 8.61426 16.8975 8.37793 17.3271 8.37793C17.9932 8.37793 18.5947 8.87207 18.5947 9.54883C18.5947 9.81738 18.4873 10.1182 18.2939 10.3975L13.2988 17.9922C13.0195 18.4111 12.5898 18.6582 12.1172 18.6582Z" fill="white"/>
</g>
<defs>
<clipPath id="clip0_33275_2744">
<rect width="27" height="26" fill="white"/>
</clipPath>
</defs>
</svg>
