<svg width="26" height="26" viewBox="0 0 26 26" fill="none" xmlns="http://www.w3.org/2000/svg">
<g clip-path="url(#clip0_33275_2617)">
<path d="M7.58398 24.3193H17.6816C19.4111 24.3193 20.3564 23.4492 20.4316 21.7627L21.1084 6.54102H22.3652C23.085 6.54102 23.6113 6.02539 23.6113 5.31641C23.6113 4.61816 23.085 4.11328 22.3652 4.11328H17.9395V2.56641C17.9395 0.686523 16.7686 -0.376953 14.6738 -0.376953H10.5811C8.48633 -0.376953 7.30469 0.686523 7.30469 2.56641V4.11328H2.88965C2.18066 4.11328 1.64355 4.61816 1.64355 5.31641C1.64355 6.03613 2.18066 6.54102 2.88965 6.54102H4.15723L4.83398 21.7627C4.89844 23.4492 5.85449 24.3193 7.58398 24.3193ZM10.0654 2.6416C10.0654 2.25488 10.3232 2.0293 10.7637 2.0293H14.4805C14.9316 2.0293 15.1895 2.25488 15.1895 2.6416V4.11328H10.0654V2.6416ZM9.10938 20.624C8.60449 20.624 8.25 20.2803 8.23926 19.7754L7.91699 8.87207C7.90625 8.35645 8.23926 8.0127 8.76562 8.0127C9.29199 8.0127 9.64648 8.35645 9.65723 8.86133L9.97949 19.7539C9.99023 20.2695 9.65723 20.624 9.10938 20.624ZM12.6328 20.624C12.1064 20.624 11.752 20.291 11.752 19.7754V8.86133C11.752 8.35645 12.1064 8.0127 12.6328 8.0127C13.1484 8.0127 13.5029 8.35645 13.5029 8.86133V19.7754C13.5029 20.291 13.1484 20.624 12.6328 20.624ZM16.1455 20.624C15.6084 20.624 15.2646 20.2695 15.2754 19.7646L15.5977 8.86133C15.6084 8.35645 15.9629 8.02344 16.4893 8.02344C17.0156 8.02344 17.3594 8.35645 17.3379 8.87207L17.0264 19.7754C17.0156 20.2803 16.6504 20.624 16.1455 20.624Z" fill="white"/>
</g>
<defs>
<clipPath id="clip0_33275_2617">
<rect width="26" height="26" fill="white"/>
</clipPath>
</defs>
</svg>
