<svg width="25" height="24" viewBox="0 0 25 24" fill="none" xmlns="http://www.w3.org/2000/svg">
<path d="M12.0996 22.3008C17.7734 22.3008 22.4414 17.6328 22.4414 11.959C22.4414 6.27539 17.7734 1.60742 12.0898 1.60742C6.40625 1.60742 1.74805 6.27539 1.74805 11.959C1.74805 17.6328 6.41602 22.3008 12.0996 22.3008ZM7.34375 11.9492C7.34375 11.2754 7.83203 10.7676 8.50586 10.7676H10.918V8.35547C10.918 7.69141 11.416 7.19336 12.0898 7.19336C12.7637 7.19336 13.2715 7.69141 13.2715 8.35547V10.7676H15.6836C16.3477 10.7676 16.8457 11.2754 16.8457 11.9492C16.8457 12.623 16.3477 13.1211 15.6836 13.1211H13.2715V15.543C13.2715 16.207 12.7637 16.6953 12.0898 16.6953C11.416 16.6953 10.918 16.207 10.918 15.543V13.1211H8.50586C7.83203 13.1211 7.34375 12.623 7.34375 11.9492Z" fill="#007AFF"/>
</svg>
